<svg width="20" height="20" viewBox="0 0 20 20" fill="none" xmlns="http://www.w3.org/2000/svg">
<path d="M14.1667 2.50001C14.3856 2.28114 14.6454 2.10752 14.9314 1.98907C15.2173 1.87062 15.5238 1.80965 15.8334 1.80965C16.1429 1.80965 16.4494 1.87062 16.7353 1.98907C17.0213 2.10752 17.2812 2.28114 17.5 2.50001C17.7189 2.71888 17.8925 2.97871 18.011 3.26468C18.1294 3.55065 18.1904 3.85714 18.1904 4.16667C18.1904 4.4762 18.1294 4.7827 18.011 5.06867C17.8925 5.35463 17.7189 5.61447 17.5 5.83334L6.25002 17.0833L1.66669 18.3333L2.91669 13.75L14.1667 2.50001Z" stroke="#344054" stroke-width="1.67" stroke-linecap="round" stroke-linejoin="round"/>
</svg>
